<?xml version="1.0" encoding="UTF-8"?>
<svg width="205px" height="208px" viewBox="0 0 205 208" version="1.1" xmlns="http://www.w3.org/2000/svg" stroke="currentColor" xmlns:xlink="http://www.w3.org/1999/xlink">
    <g id="Page-1" stroke="none" stroke-width="1" fill="none" fill-rule="evenodd">
        <g id="Group-3" transform="translate(0.000000, -0.687500)" fill="currentColor" fill-rule="nonzero">
            <g id="Group-2" transform="translate(0.000000, 0.687500)">
                <path d="M187.15625,0 C189.304688,0 191.14388,0.764973958 192.673828,2.29492187 C194.203776,3.82486979 194.96875,5.6640625 194.96875,7.8125 L194.96875,7.8125 L194.96875,83.5625 C194.96875,85.7109375 194.203776,87.5501302 192.673828,89.0800781 C191.14388,90.610026 189.304688,91.375 187.15625,91.375 C185.007812,91.375 183.16862,90.610026 181.638672,89.0800781 C180.108724,87.5501302 179.34375,85.7109375 179.34375,83.5625 L179.34375,83.5625 L179.34375,77.2148438 C169.578125,86.6549479 157.859375,91.375 144.1875,91.375 C130.692257,91.375 119.088163,86.7605966 109.375218,77.5317898 L109.375013,115.718928 C109.907111,115.145035 110.453982,114.577268 111.015625,114.015625 C121.692708,103.338542 134.583333,98 149.6875,98 C164.791667,98 177.682292,103.338542 188.359375,114.015625 C199.036458,124.692708 204.375,137.583333 204.375,152.6875 C204.375,154.835938 203.610026,156.67513 202.080078,158.205078 C200.55013,159.735026 198.710938,160.5 196.5625,160.5 L196.5625,160.5 L111.308594,160.5 L111.426133,161.089251 C112.930833,168.334164 116.472382,174.74582 122.050781,180.324219 C129.667969,187.941406 138.880208,191.75 149.6875,191.75 C159.453125,191.75 167.851562,188.657552 174.882812,182.472656 C176.315104,181.365885 177.942708,180.8125 179.765625,180.8125 C181.914062,180.8125 183.753255,181.577474 185.283203,183.107422 C186.813151,184.63737 187.578125,186.476562 187.578125,188.625 C187.578125,190.773438 186.829427,192.628906 185.332031,194.191406 C175.240885,202.980469 163.359375,207.375 149.6875,207.375 C134.583333,207.375 121.692708,202.036458 111.015625,191.359375 C107.490655,187.834405 104.547558,184.06817 102.186334,180.060671 C99.8274421,184.06817 96.8843451,187.834405 93.359375,191.359375 C82.6822917,202.036458 69.7916667,207.375 54.6875,207.375 C39.5833333,207.375 26.6927083,202.036458 16.015625,191.359375 C5.33854167,180.682292 0,167.791667 0,152.6875 C0,137.583333 5.33854167,124.692708 16.015625,114.015625 C26.6927083,103.338542 39.5833333,98 54.6875,98 C69.7916667,98 82.6822917,103.338542 93.359375,114.015625 L93.343,113.999 L93.34375,50.78125 C93.34375,41.2637579 90.0378768,33.1093509 83.4261303,26.3180291 L83.0410156,25.9277344 C76.172526,19.0592448 67.8880208,15.625 58.1875,15.625 C48.4869792,15.625 40.202474,19.0592448 33.3339844,25.9277344 C26.4654948,32.796224 23.03125,41.0807292 23.03125,50.78125 L23.03125,50.78125 L23.03125,83.5625 C23.03125,85.7109375 22.266276,87.5501302 20.7363281,89.0800781 C19.2063802,90.610026 17.3671875,91.375 15.21875,91.375 C13.0703125,91.375 11.2311198,90.610026 9.70117188,89.0800781 C8.17122396,87.5501302 7.40625,85.7109375 7.40625,83.5625 L7.40625,83.5625 L7.40625,7.8125 C7.40625,5.6640625 8.17122396,3.82486979 9.70117188,2.29492188 C11.2311198,0.764973958 13.0703125,0 15.21875,0 C17.3671875,0 19.2063802,0.764973958 20.7363281,2.29492188 C22.266276,3.82486979 23.03125,5.6640625 23.03125,7.8125 L23.03125,7.8125 L23.03125,14.1601563 C32.796875,4.72005208 44.515625,0 58.1875,0 C72.1848958,0 84.1477865,4.96419271 94.0761719,14.8925781 C101.702646,22.519052 106.399988,31.3459898 108.168197,41.3733916 L108.1875,41.375 L108.1875,41.375 L108.256117,41.8875217 C108.362979,42.5324497 108.457823,43.1823033 108.540649,43.8370824 C110.328848,55.464977 112.899112,59.0123928 119.333984,65.4472656 C126.202474,72.3157552 134.486979,75.75 144.1875,75.75 C153.888021,75.75 162.172526,72.3157552 169.041016,65.4472656 C175.909505,58.578776 179.34375,50.2942708 179.34375,40.59375 L179.34375,40.59375 L179.34375,7.8125 C179.34375,5.6640625 180.108724,3.82486979 181.638672,2.29492187 C183.16862,0.764973958 185.007812,0 187.15625,0 Z M54.6875,113.625 C43.8802083,113.625 34.6679688,117.433594 27.0507812,125.050781 C19.4335938,132.667969 15.625,141.880208 15.625,152.6875 C15.625,163.494792 19.4335938,172.707031 27.0507812,180.324219 C34.6679688,187.941406 43.8802083,191.75 54.6875,191.75 C65.4947917,191.75 74.7070312,187.941406 82.3242188,180.324219 C89.9414062,172.707031 93.75,163.494792 93.75,152.6875 C93.75,141.880208 89.9414062,132.667969 82.3242188,125.050781 C74.7070312,117.433594 65.4947917,113.625 54.6875,113.625 Z M149.6875,113.625 C138.880208,113.625 129.667969,117.433594 122.050781,125.050781 C116.321615,130.779948 112.740885,137.388021 111.308594,144.875 L111.308594,144.875 L188.066406,144.875 C186.634115,137.388021 183.053385,130.779948 177.324219,125.050781 C169.707031,117.433594 160.494792,113.625 149.6875,113.625 Z" id="Combined-Shape"></path>
            </g>
        </g>
    </g>
</svg>
